<svg width="100%" height="100%" xmlns="http://www.w3.org/2000/svg" xmlns:xlink="http://www.w3.org/1999/xlink">
    <style>
        .large {
            visibility: hidden;
        }
        @media only screen and (min-width: 330px) {
            .small {
                visibility: hidden;
            }
            .large {
                visibility: visible;
            }
        }
    </style>
    <symbol id="heart" viewBox="0 0 127.5 123.75">
        <path id="Path_1" data-name="Path 1" d="M1023.5,502v10.5c-5.963,9.891-11.595,20-17.968,29.619-9.1,13.738-18.248,27.537-30.265,39-7.451,7.108-15.33,13.768-23.017,20.629h-4.5c-.553-.776-.934-1.919-1.686-2.273-7.91-3.724-13.171-10.548-19.2-16.418a105.2,105.2,0,0,1-26.107-40.779c-2.036-5.767-3.2-11.844-4.756-17.78v-15c.98-3.518,1.819-7.084,2.968-10.546,2.626-7.91,6.511-15.509,14.651-18.371C931,474.471,941.9,484.4,944.93,498.426c.785-.559,1.084-1.593,1.737-2.3,8.458-9.155,18.613-15.3,31.056-17.359A5.775,5.775,0,0,0,979.25,478H990.5c1.714.505,3.426,1.022,5.144,1.513C1008.1,483.078,1019.965,487.381,1023.5,502ZM921.69,485.228c-2.9.934-6.413,1.139-8.6,2.945a29.1,29.1,0,0,0-10.45,18.437c-3.329,20.968,4.3,38.653,16.7,54.526,7.508,9.61,16.315,18.223,24.745,27.087,4.852,5.1,5.843,4.918,10.6.033,1.307-1.343,2.635-2.668,4.006-3.946,14.556-13.574,28.187-27.982,40.031-44.028,6.136-8.312,13.513-15.735,17.588-25.5,2.725-6.532,1.349-15.23-3.915-19.64-10.847-9.087-23.161-13.56-37.477-11.077-11.559,2-20.979,7.814-28.587,16.543-3.254,3.734-5.881,8.009-9,11.874-.675.837-2.223.971-3.368,1.429a18.583,18.583,0,0,1,.534-3.529c.53-1.525,1.791-2.9,1.956-4.422.223-2.063-.385-4.2-.48-6.315C935.6,491.309,930.125,485.923,921.69,485.228Z" transform="translate(-896 -478)" fill="#d41f26"/>
        <path id="Path_2" data-name="Path 2" d="M952.25,601.75c7.687-6.861,15.566-13.521,23.017-20.629,12.017-11.465,21.163-25.264,30.265-39,6.373-9.619,12.005-19.728,17.968-29.619v89.25Z" transform="translate(-896 -478)" fill="#fefdfd"/>
        <path id="Path_3" data-name="Path 3" d="M896,524.5c1.56,5.936,2.72,12.013,4.756,17.78a105.2,105.2,0,0,0,26.107,40.779c6.03,5.87,11.291,12.694,19.2,16.418.752.354,1.133,1.5,1.686,2.273H896Z" transform="translate(-896 -478)" fill="#fefcfc"/>
        <path id="Path_4" data-name="Path 4" d="M979.25,478a5.775,5.775,0,0,1-1.527.767c-12.443,2.054-22.6,8.2-31.056,17.359-.653.707-.952,1.741-1.737,2.3C941.9,484.4,931,474.471,913.619,480.583c-8.14,2.862-12.025,10.461-14.651,18.371-1.149,3.462-1.988,7.028-2.968,10.546V478Z" transform="translate(-896 -478)" fill="#fdfafa"/>
        <path id="Path_5" data-name="Path 5" d="M1023.5,502c-3.535-14.619-15.4-18.922-27.856-22.487-1.718-.491-3.43-1.008-5.144-1.513h33Z" transform="translate(-896 -478)" fill="#fdfafa"/>
        <path id="Path_6" data-name="Path 6" d="M921.69,485.228c8.435.7,13.911,6.081,14.287,14.413.1,2.113.7,4.252.48,6.315-.165,1.523-1.426,2.9-1.956,4.422a18.583,18.583,0,0,0-.534,3.529c1.145-.458,2.693-.592,3.368-1.429,3.115-3.865,5.742-8.14,9-11.874,7.608-8.729,17.028-14.539,28.587-16.543,14.316-2.483,26.63,1.99,37.477,11.077,5.264,4.41,6.64,13.108,3.915,19.64-4.075,9.769-11.452,17.192-17.588,25.5-11.844,16.046-25.475,30.454-40.031,44.028-1.371,1.278-2.7,2.6-4.006,3.946-4.754,4.885-5.745,5.069-10.6-.033-8.43-8.864-17.237-17.477-24.745-27.087-12.4-15.873-20.027-33.558-16.7-54.526a29.1,29.1,0,0,1,10.45-18.437C915.277,486.367,918.786,486.162,921.69,485.228Z" transform="translate(-896 -478)" fill="#fefdfd"/>
    </symbol>

    <symbol id="type" viewBox="0 0 325.5 48">
        <path id="Path_7" data-name="Path 7" d="M950.79,564H886.3a22.392,22.392,0,0,1-2.009-1.675c-.691-.715-1.746-1.509-1.8-2.327-.215-3.039-.085-6.1-.085-9.085,3.5-.083,6.947,1.944,9.165-1.88l2.231-1.257c4.742-1.277,5.682-5.245,6.238-9.229.541-3.869-.8-7.326-4.3-9.275-4.772-2.656-9.1-1.281-12.963,2.848l-.791-4.089-7.745,1.91c3.532.688,3.925,2.738,3.848,5.568-.172,6.354-.031,12.715-.063,19.072-.017,3.407.987,7.295-3.754,8.708-.055.017.018.465.031.711H797.075V550.534h14.282c-1.869-1.736-4.194-2.861-4.393-4.282-.543-3.872-.187-7.87-.187-11.843H825.54v13.656l-4.318,1.589.232.462h13.587c-4.931-.515-4.505-3.94-4.447-7.276.089-5.109-.077-10.223.058-15.329.1-3.675-1.924-8.448,4.263-9.5H821.333l-.081.628,4.293,1.388V531.5h-18.8c0-3.172.085-6.039-.028-8.9-.084-2.147.769-3.251,2.916-3.475a5.892,5.892,0,0,0,1.628-.71l-.155-.8H797.075c-.459-2.308,1.3-1.468,2.25-1.471q20.056-.057,40.115-.026h27.369l-5.922,1.811c1.118,1.289,2.938,2.408,3,3.618.381,7.324.439,14.668.431,22.005,0,2.706-.013,5.685-3.7,6.652h11.332c-4.018-1.152-3.611-4.317-3.619-7.208-.028-8.959-.015-17.918-.018-26.878h228.7l-7.4,2.12c4.73,1.528,5.6,4.493,3.775,10.81-4.339-2.005-7.973-.237-11.955,1.692-5.671,2.747-6.635,13.511-1.973,18.031a8.616,8.616,0,0,0,11.774.379c.715-.609,1.519-1.115,2.368-1.731,1.01,3.491,3.9,4.2,9.084,2.1-4.712-.451-4.329-3.47-4.291-6.5.112-8.966.085-17.934.113-26.9H1122.5v24.688c-3.139-1.36-6.229-2.853-9.435-4.03-2.051-.753-3.684-2.02-2.749-4,.664-1.407,2.991-3.157,4.227-2.923,2.2.416,4.129,2.221,6.765,3.8-.5-1.6-.572-4.2-1.586-4.64a11.43,11.43,0,0,0-10.784.541c-2.393,1.441-3.719,3.825-2.769,6.331a10.2,10.2,0,0,0,4.283,4.538c1.751,1.045,4.1,1.035,6.043,1.83,3,1.225,3.333,4.813.511,6.389-1.4.779-3.652,1.357-4.911.757-2.286-1.09-4.119-3.128-6-4.655-.134,1.268-.35,3.309-.571,5.4,6.523,2.02,12.261,1.874,16.976-3.353V564H959.038c3.862-1.464,7.641-2.949,9.193-7.372,1.806-5.146-.734-9-6.177-9.095-2.373-.041-4.748.026-7.121-.031-1.891-.046-3.194-.721-2.656-2.976a13.417,13.417,0,0,1,3.3-1.4c6.871-.919,9.076-3.177,9.627-9.663l5.359-3.079c-4.542-.891-7.8-2.074-11.036-2.013a22.044,22.044,0,0,0-9.869,2.243c-4.382,2.4-4.191,8.213-.242,11.254a12.419,12.419,0,0,1,1.712,2.017c-1.065,1.126-2.7,2.111-3.021,3.42-.282,1.128.923,2.624,1.5,4.035-5.515,3.756-5.662,8.124-.177,11.515A11.521,11.521,0,0,1,950.79,564Zm105-32.07-1.323-3.787-7.527,1.732-.825,1.236c5.2-.888,4.549,2.158,4.586,4.711q.047,3.349,0,6.7c-.042,3.026.749,6.464-3.532,7.554h11.642c-1.5-1.132-3.528-1.942-3.548-2.8-.109-4.65.278-9.313.493-13.971,2.447-1.588,4.915-3.187,7.953-1.495,2.959,1.647,2.6,4.552,2.621,7.275.025,3.7.006,7.4.006,10.969h7.706c-3.7-.45-3.479-3.016-3.481-5.479,0-3.237.167-6.5-.145-9.705-.5-5.124-4.639-8.026-9.574-6.534C1058.969,528.9,1057.465,530.7,1055.792,531.93ZM925.29,533.3c2.446-1.588,4.914-3.187,7.952-1.495,2.959,1.647,2.6,4.552,2.621,7.275.025,3.7.006,7.4.006,10.969h7.706l.761-1.061c-4.65.741-4.2-2.015-4.231-4.418-.046-3.237.156-6.5-.156-9.705-.5-5.124-4.639-8.026-9.574-6.534-1.876.567-3.38,2.36-5.053,3.594-.419-1.2-.837-2.394-1.323-3.787l-7.527,1.732-.825,1.236c5.2-.888,4.55,2.158,4.586,4.711q.047,3.349,0,6.7c-.042,3.026.749,6.464-3.53,7.554h11.64c-1.5-1.132-3.528-1.942-3.548-2.8C924.687,542.626,925.074,537.963,925.29,533.3ZM997.7,550.272c-1.745-1.35-4.206-2.3-4.361-3.546-.513-4.1-.193-8.308-.193-12.369h19.637c-2.473,5.328,3.62,12.472-5.792,15.781h15.132c-5.347-2.238-5.347-2.238-5.348-7.681V525.642c0-5.369,0-5.369,5.19-7.613H1006.8c5.851,2.322,6.689,5.1,4.992,13.565H992.949c0-2.313.134-4.416-.03-6.5-.271-3.451.276-6.181,4.516-6.423a3.244,3.244,0,0,0,.067-.608H983.93c4.764.589,4.61,3.77,4.5,7.22-.173,5.226.014,10.462-.066,15.692-.056,3.627,1.687,8.206-4.331,9.293Zm47.384.1,1.268-1.123c-5.026.037-4.006-2.912-4.057-5.287a45.273,45.273,0,0,1,.106-5.6c.355-3.463.535-6.937-2.867-9.029-3.662-2.252-7.4-1.441-11.044.425-2.242,1.15-2.359,2.765-1.314,5.63,1.585-4.249,4.2-5.468,7.778-4.329,2.784.887,3.277,3.062,3.008,5.677-3.1.8-6.143,1.446-9.1,2.374a5.725,5.725,0,0,0-4.348,6.234,7.989,7.989,0,0,0,2.847,5.158c2.244,1.587,4.98,1.2,7.25-.742.92-.788,1.946-1.454,3.074-2.285l.978,2.9Zm-202.93-11.094c3.681,0,7.163.066,10.642-.016,5.173-.121,6.443-2.085,3.9-6.626a10.17,10.17,0,0,0-4.624-4.027c-4.4-1.874-10.976.849-13.262,5.072-2.65,4.9-1.45,12.375,2.48,15.458,3.811,2.989,11.238,2.909,14.706-.23.4-.365.449-1.123.776-2.011C847.757,550.854,842.523,548.187,842.158,539.276Zm72.468,10.918c-3.486-2.243-3.525-2.256-3.556-6.669-.036-5.05-.008-10.1-.008-15.495l-7.967,1.929.157.867,3.575.635c0,4.062-.034,8.007.011,11.951.033,2.845.244,5.73-3.575,6.782Zm-2.005-29.7c-1.632-1.328-2.7-2.829-3.5-2.7-1.127.183-2.057,1.579-3.071,2.457.9.869,1.719,2.3,2.718,2.443C909.7,522.82,910.834,521.579,912.621,520.49Z" transform="translate(-797 -516)" fill="#fefefc"/>
        <path id="Path_8" data-name="Path 8" d="M797.075,517.618h14.033l.155.8a5.892,5.892,0,0,1-1.628.71c-2.147.224-3,1.328-2.916,3.475.113,2.858.028,5.725.028,8.9h18.8V520.025l-4.293-1.388.081-.628h13.582c-6.187,1.054-4.166,5.827-4.263,9.5-.135,5.106.031,10.22-.058,15.329-.058,3.336-.484,6.761,4.447,7.276H821.454l-.232-.462,4.318-1.589V534.409H806.777c0,3.973-.356,7.971.187,11.843.2,1.421,2.524,2.546,4.393,4.282H797.075v-1.5c4.94-.229,5.074-.349,5.083-5.075q.02-9.87,0-19.741c-.016-4.733-.212-4.9-5.08-5.108Z" transform="translate(-797 -516)" fill="#fecc25"/>
        <path id="Path_9" data-name="Path 9" d="M891.571,549.033c-2.218,3.824-5.668,1.8-9.165,1.88,0,2.984-.13,6.046.085,9.085.059.818,1.114,1.612,1.8,2.327A22.392,22.392,0,0,0,886.3,564h-12c-.013-.246-.086-.694-.031-.711,4.741-1.413,3.737-5.3,3.754-8.708.032-6.357-.109-12.718.063-19.072.077-2.83-.316-4.88-3.848-5.568l7.745-1.91.791,4.089c3.862-4.129,8.191-5.5,12.963-2.848,3.5,1.949,4.837,5.406,4.3,9.275-.556,3.984-1.5,7.952-6.238,9.229q.111-.859.224-1.719c.435-3.344,1.452-6.742,1.141-10.015-.309-3.246-4.221-5.335-7.374-4.877-3.514.51-5.413,2.851-5.443,6.729a41.227,41.227,0,0,1-.041,5.216c-.55,4.036,2,5.244,5.164,5.83A24.731,24.731,0,0,0,891.571,549.033Z" transform="translate(-797 -516)" fill="#fecc25"/>
        <path id="Path_10" data-name="Path 10" d="M1098.506,516.121c-.028,8.968,0,17.936-.113,26.9-.038,3.026-.421,6.045,4.291,6.5-5.181,2.1-8.074,1.394-9.084-2.1-.849.616-1.653,1.122-2.368,1.731a8.616,8.616,0,0,1-11.774-.379c-4.662-4.52-3.7-15.284,1.973-18.031,3.982-1.929,7.616-3.7,11.955-1.692,1.823-6.317.955-9.282-3.775-10.81l7.4-2.12Zm-4.412,22.6.845-.375c-.994-2.179-1.5-4.855-3.1-6.414a5.953,5.953,0,0,0-7.9-.41c-3.151,2.226-3.423,5.636-3.087,9.005.486,4.877,3.653,7.986,7.424,7.726,3.805-.262,5.8-3.155,5.813-8.417C1094.095,539.468,1094.094,539.1,1094.094,538.725Z" transform="translate(-797 -516)" fill="#fecc26"/>
        <path id="Path_11" data-name="Path 11" d="M950.79,564a11.521,11.521,0,0,0-1.354-1.147c-5.485-3.391-5.338-7.759.177-11.515-.579-1.411-1.784-2.907-1.5-4.035.326-1.309,1.956-2.294,3.021-3.42l1.145.643c-.538,2.255.765,2.93,2.656,2.976,2.373.057,4.748-.01,7.121.031,5.443.094,7.983,3.949,6.177,9.095-1.552,4.423-5.331,5.908-9.193,7.372Zm6.73-12.7c-1,0-2-.054-2.989.011a5.139,5.139,0,0,0-5.151,4.518,4.8,4.8,0,0,0,3.462,5.845,13.369,13.369,0,0,0,6.166.35c3.839-.739,6.485-4.039,5.942-6.995-.754-4.1-4.084-3.647-7.056-3.735C957.769,551.289,957.645,551.293,957.52,551.3Z" transform="translate(-797 -516)" fill="#fecc24"/>
        <path id="Path_12" data-name="Path 12" d="M1122.5,546.794c-4.715,5.227-10.453,5.373-16.976,3.353.221-2.091.437-4.132.571-5.4,1.881,1.527,3.714,3.565,6,4.655,1.259.6,3.515.022,4.911-.757,2.822-1.576,2.487-5.164-.511-6.389-1.945-.795-4.292-.785-6.043-1.83a10.2,10.2,0,0,1-4.283-4.538c-.95-2.506.376-4.89,2.769-6.331a11.43,11.43,0,0,1,10.784-.541c1.014.441,1.085,3.039,1.586,4.64-2.636-1.579-4.569-3.384-6.765-3.8-1.236-.234-3.563,1.516-4.227,2.923-.935,1.98.7,3.247,2.749,4,3.206,1.177,6.3,2.67,9.435,4.03Z" transform="translate(-797 -516)" fill="#fecd26"/>
        <path id="Path_13" data-name="Path 13" d="M868.309,516.121c0,8.96-.01,17.919.018,26.878.008,2.891-.4,6.056,3.619,7.208H860.614c3.692-.967,3.7-3.946,3.7-6.652.008-7.337-.05-14.681-.431-22.005-.063-1.21-1.883-2.329-3-3.618l5.922-1.811Z" transform="translate(-797 -516)" fill="#fecb1f"/>
        <path id="Path_14" data-name="Path 14" d="M797.075,519.114c4.868.2,5.064.375,5.08,5.108q.034,9.87,0,19.741c-.009,4.726-.143,4.846-5.083,5.075Z" transform="translate(-797 -516)" fill="#fefbf3"/>
        <path id="Path_15" data-name="Path 15" d="M997.7,550.272H984.03c6.018-1.087,4.275-5.666,4.331-9.293.08-5.23-.107-10.466.066-15.692.113-3.45.267-6.631-4.5-7.22H997.5a3.244,3.244,0,0,1-.067.608c-4.24.242-4.787,2.972-4.516,6.423.164,2.08.03,4.183.03,6.5H1011.8c1.7-8.462.859-11.243-4.992-13.565h15.165c-5.189,2.244-5.189,2.244-5.19,7.613v16.815c0,5.443,0,5.443,5.348,7.681h-15.132c9.412-3.309,3.319-10.453,5.792-15.781H993.15c0,4.061-.32,8.267.193,12.369C993.5,547.968,995.959,548.922,997.7,550.272Z" transform="translate(-797 -516)" fill="#feca1d"/>
        <path id="Path_16" data-name="Path 16" d="M1045.088,550.37h-6.417l-.978-2.9c-1.128.831-2.154,1.5-3.074,2.285-2.27,1.943-5.006,2.329-7.25.742a7.989,7.989,0,0,1-2.847-5.158,5.725,5.725,0,0,1,4.348-6.234c2.953-.928,5.994-1.577,9.1-2.374.269-2.615-.224-4.79-3.008-5.677-3.579-1.139-6.193.08-7.778,4.329-1.045-2.865-.928-4.48,1.314-5.63,3.64-1.866,7.382-2.677,11.044-.425,3.4,2.092,3.222,5.566,2.867,9.029a45.273,45.273,0,0,0-.106,5.6c.051,2.375-.969,5.324,4.057,5.287Zm-7.01-11.769a58.729,58.729,0,0,0-6.457,1.656,4.464,4.464,0,0,0-2.587,6.143c1.427,2.572,3.62,2.119,5.847,1.142C1038.855,545.8,1038.7,542.512,1038.078,538.6Z" transform="translate(-797 -516)" fill="#fecc24"/>
        <path id="Path_17" data-name="Path 17" d="M891.571,549.033a24.731,24.731,0,0,1-4.1-.093c-3.167-.586-5.714-1.794-5.164-5.83a41.227,41.227,0,0,0,.041-5.216c.03-3.878,1.929-6.219,5.443-6.729,3.153-.458,7.065,1.631,7.374,4.877.311,3.273-.706,6.671-1.141,10.015q-.113.859-.224,1.719Z" transform="translate(-797 -516)" fill="#fefdf9"/>
        <path id="Path_18" data-name="Path 18" d="M842.158,539.276c.365,8.911,5.6,11.578,14.613,7.62-.327.888-.373,1.646-.776,2.011-3.468,3.139-10.9,3.219-14.706.23-3.93-3.083-5.13-10.562-2.48-15.458,2.286-4.223,8.861-6.946,13.262-5.072a10.17,10.17,0,0,1,4.624,4.027c2.548,4.541,1.278,6.505-3.9,6.626C849.321,539.342,845.839,539.276,842.158,539.276Zm10.969-1.742c.127-5.272-1.824-8-5.424-7.927-3.578.074-5.679,3.064-5.359,7.927Z" transform="translate(-797 -516)" fill="#fecc26"/>
        <path id="Path_19" data-name="Path 19" d="M952.277,544.526l-1.145-.643a12.419,12.419,0,0,0-1.712-2.017c-3.949-3.041-4.14-8.857.242-11.254a22.044,22.044,0,0,1,9.869-2.243c3.235-.061,6.494,1.122,11.036,2.013l-5.359,3.079c-.551,6.486-2.756,8.744-9.627,9.663A13.417,13.417,0,0,0,952.277,544.526Zm8.453-8.409c0-3.81-1.8-5.956-5.032-5.974-3.173-.018-4.963,1.829-4.976,5.134-.013,3.578,2.1,6.082,5.125,6.072C958.973,541.338,960.727,539.459,960.73,536.117Z" transform="translate(-797 -516)" fill="#fecd29"/>
        <path id="Path_20" data-name="Path 20" d="M925.322,531.93c1.673-1.234,3.177-3.027,5.053-3.594,4.935-1.492,9.076,1.41,9.574,6.534.312,3.209.11,6.468.156,9.705.035,2.4-.419,5.159,4.231,4.418l-.761,1.061h-7.706c0-3.565.019-7.267-.006-10.969-.018-2.723.338-5.628-2.621-7.275-3.038-1.692-5.506-.093-7.952,1.495Z" transform="translate(-797 -516)" fill="#fecd29"/>
        <path id="Path_21" data-name="Path 21" d="M1055.792,531.93c1.673-1.234,3.177-3.027,5.053-3.594,4.935-1.492,9.075,1.41,9.574,6.534.312,3.209.143,6.468.145,9.705,0,2.463-.217,5.029,3.481,5.479h-7.706c0-3.565.019-7.267-.006-10.969-.018-2.723.338-5.628-2.621-7.275-3.038-1.692-5.506-.093-7.953,1.495Z" transform="translate(-797 -516)" fill="#fecd29"/>
        <path id="Path_22" data-name="Path 22" d="M914.626,550.194H903.263c3.819-1.052,3.608-3.937,3.575-6.782-.045-3.944-.011-7.889-.011-11.951l-3.575-.635-.157-.867,7.967-1.929c0,5.394-.028,10.445.008,15.495C911.1,547.938,911.14,547.951,914.626,550.194Z" transform="translate(-797 -516)" fill="#fecb22"/>
        <path id="Path_23" data-name="Path 23" d="M925.322,531.93l-.032,1.375c-.216,4.658-.6,9.321-.494,13.971.02.857,2.049,1.667,3.548,2.8H916.7c4.279-1.09,3.488-4.528,3.53-7.554q.045-3.349,0-6.7c-.036-2.553.615-5.6-4.586-4.711l.825-1.236L924,528.143C924.485,529.536,924.9,530.733,925.322,531.93Z" transform="translate(-797 -516)" fill="#fecd28"/>
        <path id="Path_24" data-name="Path 24" d="M1055.792,531.93l-.033,1.375c-.215,4.658-.6,9.321-.493,13.971.02.857,2.049,1.667,3.548,2.8h-11.642c4.281-1.09,3.49-4.528,3.532-7.554q.045-3.349,0-6.7c-.037-2.553.615-5.6-4.586-4.711l.825-1.236,7.527-1.732Z" transform="translate(-797 -516)" fill="#fecd28"/>
        <path id="Path_25" data-name="Path 25" d="M912.621,520.49c-1.787,1.089-2.917,2.33-3.858,2.2-1-.138-1.819-1.574-2.718-2.443,1.014-.878,1.944-2.274,3.071-2.457C909.919,517.661,910.989,519.162,912.621,520.49Z" transform="translate(-797 -516)" fill="#fece2c"/>
        <path id="Path_26" data-name="Path 26" d="M1094.094,538.725c0,.372,0,.743,0,1.115-.01,5.262-2.008,8.155-5.813,8.417-3.771.26-6.938-2.849-7.424-7.726-.336-3.369-.064-6.779,3.087-9.005a5.953,5.953,0,0,1,7.9.41c1.6,1.559,2.106,4.235,3.1,6.414Z" transform="translate(-797 -516)" fill="#fefdf9"/>
        <path id="Path_27" data-name="Path 27" d="M957.52,551.3c.125,0,.249-.007.374,0,2.972.088,6.3-.369,7.056,3.735.543,2.956-2.1,6.256-5.942,6.995a13.369,13.369,0,0,1-6.166-.35,4.8,4.8,0,0,1-3.462-5.845,5.139,5.139,0,0,1,5.151-4.518C955.523,551.245,956.523,551.3,957.52,551.3Z" transform="translate(-797 -516)" fill="#fefdf9"/>
        <path id="Path_28" data-name="Path 28" d="M1038.078,538.6c.62,3.911.777,7.2-3.2,8.941-2.227.977-4.42,1.43-5.847-1.142a4.464,4.464,0,0,1,2.587-6.143A58.729,58.729,0,0,1,1038.078,538.6Z" transform="translate(-797 -516)" fill="#fefcf3"/>
        <path id="Path_29" data-name="Path 29" d="M853.127,537.534H842.344c-.32-4.863,1.781-7.853,5.359-7.927C851.3,529.532,853.254,532.262,853.127,537.534Z" transform="translate(-797 -516)" fill="#fefcf6"/>
        <path id="Path_30" data-name="Path 30" d="M960.73,536.117c0,3.342-1.757,5.221-4.883,5.232-3.025.01-5.138-2.494-5.125-6.072.013-3.3,1.8-5.152,4.976-5.134C958.925,530.161,960.733,532.307,960.73,536.117Z" transform="translate(-797 -516)" fill="#fefdf8"/>
    </symbol>

    <symbol id="large" viewBox="0 0 328 174">
        <use xlink:href="#heart" x="99" y="0" width="127.5" height="123.75" />
        <use xlink:href="#type" x="0" y="123.75" width="325.5" height="48" />
    </symbol>
    <symbol id="small" viewBox="0 0 127.5 123.75">
        <use xlink:href="#heart" x="0" y="0" width="127.5" height="123.75" />
        <g id="hs" transform="translate(22.075 28.118)">
            <path id="Path_8" data-name="Path 8" d="M797.075,517.618h14.033l.155.8a5.892,5.892,0,0,1-1.628.71c-2.147.224-3,1.328-2.916,3.475.113,2.858.028,5.725.028,8.9h18.8V520.025l-4.293-1.388.081-.628h13.582c-6.187,1.054-4.166,5.827-4.263,9.5-.135,5.106.031,10.22-.058,15.329-.058,3.336-.484,6.761,4.447,7.276H821.454l-.232-.462,4.318-1.589V534.409H806.777c0,3.973-.356,7.971.187,11.843.2,1.421,2.524,2.546,4.393,4.282H797.075v-1.5c4.94-.229,5.074-.349,5.083-5.075q.02-9.87,0-19.741c-.016-4.733-.212-4.9-5.08-5.108Z" transform="translate(-797.075 -517.618)" fill="#fecc25"/>
            <path id="Path_15" data-name="Path 15" d="M997.7,550.272H984.03c6.018-1.087,4.275-5.666,4.331-9.293.08-5.23-.107-10.466.066-15.692.113-3.45.267-6.631-4.5-7.22H997.5a3.244,3.244,0,0,1-.067.608c-4.24.242-4.787,2.972-4.516,6.423.164,2.08.03,4.183.03,6.5H1011.8c1.7-8.462.859-11.243-4.992-13.565h15.165c-5.189,2.244-5.189,2.244-5.19,7.613v16.815c0,5.443,0,5.443,5.348,7.681h-15.132c9.412-3.309,3.319-10.453,5.792-15.781H993.15c0,4.061-.32,8.267.193,12.369C993.5,547.968,995.959,548.922,997.7,550.272Z" transform="translate(-945.964 -501.234)" fill="#feca1d"/>
        </g>
    </symbol>
    <use class="small" xlink:href="#small" x="0" y="0" width="127.5" height="123.75" />
    <use class="large" xlink:href="#large" x="0" y="0" width="328" height="174" />
</svg>